<svg width="126" height="114" viewBox="0 0 126 114" fill="none" xmlns="http://www.w3.org/2000/svg">
    <path fill-rule="evenodd" clip-rule="evenodd" d="M107.556 5.54417L122.247 18.7003C124.219 20.466 124.219 23.3571 122.247 25.132L110.978 35.2232L89.1056 15.6446L100.384 5.54417C102.356 3.77843 105.584 3.77843 107.556 5.54417ZM31.568 15.4616L55.3717 45.8451L84.825 19.4688L106.688 39.0566L73.4135 68.8638L88.9727 88.7169L78.256 95.6609L61.8692 79.2112L37.8612 100.711C35.8895 102.477 32.6611 102.477 30.6894 100.711L15.9883 87.555C14.0166 85.7893 14.0166 82.8982 15.9883 81.1233L41.2427 58.5072L6.18078 23.3113C-9.66453 7.20927 7.18196 -15.6722 31.568 15.4616ZM9.14347 86.7682L31.1083 106.429L6.16035 110.116L9.14347 86.7682ZM86.2961 95.5786C94.9492 89.8514 101.038 90.4277 104.46 96.9967C105.268 98.552 107.73 105.212 112.797 108.854C117.772 112.431 125.547 112.925 125.547 113.144C113.369 114.16 63.371 114.526 86.2961 95.5786Z" fill="#9C0F48" fill-opacity="0.89" />
</svg>