<svg width="30" height="30" viewBox="0 0 30 30" fill="none" xmlns="http://www.w3.org/2000/svg">
<path fill-rule="evenodd" clip-rule="evenodd" d="M14.9994 0.373745C6.71686 0.373745 0 7.08948 0 15.3731C0 22.0009 4.29741 27.6215 10.2575 29.6058C11.0077 29.7447 11.2834 29.2797 11.2834 28.8833C11.2834 28.5256 11.2684 27.3441 11.2623 26.0918C7.08895 26.9992 6.2092 24.3212 6.2092 24.3212C5.52708 22.5872 4.54378 22.126 4.54378 22.126C3.18291 21.1942 4.64733 21.2147 4.64733 21.2147C6.15323 21.3199 6.94608 22.7594 6.94608 22.7594C8.28483 25.0526 10.4562 24.3887 11.3116 24.0062C11.4467 23.0367 11.8342 22.3746 12.2639 21.9998C8.93198 21.6216 5.42962 20.3349 5.42962 14.5869C5.42962 12.9498 6.0165 11.6111 6.97486 10.5613C6.81877 10.1827 6.30497 8.65792 7.11937 6.59223C7.11937 6.59223 8.37891 6.18864 11.2457 8.12973C12.4416 7.79809 13.7244 7.63089 14.9984 7.62535C16.2734 7.63089 17.5584 7.79753 18.756 8.12973C21.6189 6.18976 22.8773 6.59223 22.8773 6.59223C23.6928 8.65848 23.1813 10.1843 23.0251 10.5614C23.9868 11.6111 24.5687 12.9498 24.5687 14.5869C24.5687 20.3482 21.0586 21.6149 17.7195 21.9865C18.2577 22.4515 18.7382 23.3645 18.7382 24.763C18.7382 26.7689 18.7211 28.3855 18.7211 28.8788C18.7211 29.278 18.9913 29.7447 19.752 29.5985C25.7086 27.6132 30.0006 21.9919 30.0006 15.3681C30.0006 7.08554 23.2848 0.368683 15.0006 0.368683L14.9994 0.373745Z" fill="black"/>
</svg>
