<svg width="30" height="30" viewBox="0 0 30 30" fill="none" xmlns="http://www.w3.org/2000/svg">
<g clip-path="url(#clip0_13_97)">
<rect width="30" height="30" fill="white"/>
<path fill-rule="evenodd" clip-rule="evenodd" d="M15.0045 0C23.2853 0 30.009 6.71467 30.009 15.0045C30.009 23.2853 23.2943 30.009 15.0045 30.009C6.72367 30.009 0 23.2943 0 15.0045C0 6.72367 6.71467 0 15.0045 0ZM13.0693 12.0252H16.1476V13.6004H16.1926C16.6247 12.8263 17.6688 12.0252 19.2349 12.0252C22.4842 12.0252 23.0873 14.0504 23.0873 16.6787V22.0432H19.874V17.2907C19.874 16.1566 19.847 14.6985 18.1998 14.6985C16.5257 14.6985 16.2736 15.9316 16.2736 17.2097V22.0432H13.0603V12.0252H13.0693ZM10.8461 9.24392C10.8461 10.162 10.099 10.9181 9.17192 10.9181C8.25383 10.9181 7.49775 10.171 7.49775 9.24392C7.49775 8.32583 8.24482 7.56976 9.17192 7.56976C10.09 7.56976 10.8461 8.31683 10.8461 9.24392ZM7.50675 12.0252H10.8461V22.0432H7.50675V12.0252Z" fill="black"/>
</g>
<defs>
<clipPath id="clip0_13_97">
<rect width="30" height="30" fill="white"/>
</clipPath>
</defs>
</svg>
