<svg width="30" height="30" viewBox="0 0 30 30" fill="none" xmlns="http://www.w3.org/2000/svg">
<path fill-rule="evenodd" clip-rule="evenodd" d="M15.0045 0C23.2853 0 30.009 6.71467 30.009 15.0045C30.009 23.2853 23.2943 30.009 15.0045 30.009C6.72367 30.009 0 23.2943 0 15.0045C0 6.72367 6.71467 0 15.0045 0ZM23.1053 9.973C22.5113 10.243 21.8722 10.414 21.1971 10.495C21.8812 10.081 22.4122 9.43294 22.6553 8.65887C22.0162 9.0369 21.2961 9.31593 20.5491 9.46895C19.937 8.82088 19.0819 8.42484 18.1188 8.42484C16.2826 8.42484 14.7975 9.90999 14.7975 11.7462C14.7975 12.0072 14.8245 12.2592 14.8785 12.5023C12.1152 12.3582 9.66697 11.0441 8.0288 9.0279C7.73177 9.53195 7.57876 10.108 7.57876 10.7021C7.57876 11.8542 8.16382 12.8713 9.05491 13.4653C8.50585 13.4473 8.0018 13.2943 7.55176 13.0513V13.0963C7.55176 14.7075 8.69487 16.0486 10.216 16.3546C9.93699 16.4266 9.63996 16.4716 9.34293 16.4716C9.12691 16.4716 8.91989 16.4536 8.71287 16.4086C9.13591 17.7318 10.36 18.6859 11.8182 18.7219C10.6751 19.613 9.25293 20.144 7.68677 20.144C7.41674 20.144 7.15572 20.126 6.89469 20.099C8.37084 21.0441 10.117 21.5932 11.9892 21.5932C18.1008 21.5932 21.4491 16.5257 21.4491 12.1332C21.4491 11.9892 21.4491 11.8452 21.4401 11.7012C22.0882 11.2331 22.6553 10.6481 23.0963 9.982L23.1053 9.973Z" fill="black"/>
</svg>
