<svg width="125" height="125" viewBox="0 0 125 125" fill="none" xmlns="http://www.w3.org/2000/svg">
<rect width="125" height="125" fill="white"/>
<path d="M83.9837 58.9844L85.1556 59.7639C83.2008 60.9375 80.0776 61.717 75.7791 62.4965V60.5452C79.2964 57.0279 81.2494 52.3423 81.2494 47.2643H83.5984V37.8895H76.5656V47.2643H78.9092C78.9092 51.5628 77.3468 55.0748 75.0031 58.1997L68.7533 51.1687H55.4707L49.6132 57.8126C47.2695 55.0783 45.707 51.1687 45.707 46.8754H48.0507V37.5007H41.0214V47.2678H43.3651C43.3651 52.3458 45.3182 57.0349 48.8337 60.5486V62.5C44.9276 61.7205 41.8026 60.9375 39.459 59.7674L40.6308 58.9879L35.9434 50.785L29.6936 54.3006L34.381 62.5035L36.7247 60.941C39.459 62.8923 43.7557 64.0659 48.8337 64.8471V69.1422C46.49 71.4893 44.5369 74.616 43.7557 78.1245H41.0232V87.4975H48.0525V78.5186H46.49C47.2712 76.175 48.4431 73.8313 50.0055 71.8747L55.4741 78.5186H68.7568L74.2271 71.8747C75.7896 73.826 76.9579 76.175 77.7444 78.5186H76.1697V87.8951H83.199V78.5186H80.4647C79.6852 74.9979 77.7357 71.8747 75.3902 69.538V65.2395C80.4647 64.46 84.7632 62.8923 87.4975 61.3316L89.8412 62.8941L94.5286 54.6947L88.2788 51.1757L83.9837 58.9844Z" fill="#9C0F48"/>
<path d="M113.278 0H11.7184C5.07798 0 0 5.07798 0 11.7202V113.282C0 119.922 5.07798 125 11.7184 125H113.278C119.926 125 125 119.922 125 113.282V11.7202C124.997 5.4686 119.528 0 113.278 0ZM43.7488 8.59525C46.0925 8.59525 48.4361 10.5466 48.4361 13.2826C48.4361 16.0169 46.4831 17.97 43.7488 17.97C41.4051 17.97 39.0614 16.0169 39.0614 13.2826C39.0632 10.5483 41.0162 8.59525 43.7488 8.59525ZM30.4679 8.59525C32.8133 8.59525 35.1553 10.5466 35.1553 13.2826C35.1553 16.0169 33.2022 17.97 30.4679 17.97C27.7353 17.97 25.7805 16.0169 25.7805 13.2826C25.7805 10.5483 28.1242 8.59525 30.4679 8.59525ZM17.5776 8.59525C19.9213 8.59525 22.265 10.5466 22.265 13.2826C22.265 16.0169 20.3119 17.97 17.5776 17.97C14.8433 17.97 12.8903 16.0169 12.8903 13.2826C12.8903 10.5483 14.8433 8.59525 17.5776 8.59525ZM111.327 103.514C111.327 107.811 107.808 111.325 103.516 111.325H21.4855C17.1888 111.325 13.6732 107.809 13.6732 103.514V33.2039C13.6732 28.9072 17.1905 25.3934 21.4855 25.3934H54.6877C62.1094 25.3934 62.4983 25.3934 62.4983 21.489C62.4983 16.411 66.0138 13.6767 70.3105 13.6767H103.511C107.811 13.6767 111.323 17.194 111.323 21.489L111.327 103.514Z" fill="#9C0F48"/>
</svg>
