<svg width="125" height="125" viewBox="0 0 125 125" fill="none" xmlns="http://www.w3.org/2000/svg">
<rect width="125" height="125" fill="white"/>
<path d="M73.8281 73.8281C70.7031 76.9549 69.9218 80.4705 74.6058 85.1562C79.2933 89.8437 87.4999 87.1076 87.8871 93.75C92.5746 86.3281 89.8385 78.9062 85.1562 74.2205C80.4704 69.5295 76.5624 70.7049 73.8281 73.8281Z" fill="#9C0F48"/>
<path d="M73.4358 72.6563C74.9983 71.0938 75.3906 68.75 73.8299 66.7986C71.4844 63.2813 38.6736 34.7656 38.6736 34.7656C37.1111 33.2031 34.7674 32.8142 33.9861 33.9861C33.2066 34.7656 33.5955 37.1094 34.7674 38.6736C34.7674 38.6736 57.033 66.0191 66.7986 73.8316C68.7518 75.0035 71.0972 75.0035 72.658 73.4358L73.4358 72.6563Z" fill="#9C0F48"/>
<path d="M113.281 0H11.7187C5.07638 0 0 5.07812 0 11.7187V113.28C0 119.922 5.07638 125 11.7187 125H113.281C119.922 125 125 119.922 125 113.28V11.7187C125 5.07812 119.922 0 113.281 0ZM43.75 8.20312C46.0937 8.20312 48.4375 10.1563 48.4375 12.8906C48.4375 15.6233 46.4844 17.5781 43.75 17.5781C41.4045 17.5781 39.0625 15.625 39.0625 12.8906C39.0625 10.1563 41.0156 8.20312 43.75 8.20312ZM30.4687 8.20312C32.8125 8.20312 35.1562 10.1563 35.1562 12.8906C35.1562 15.6233 33.2049 17.5781 30.4687 17.5781C27.7326 17.5781 25.7812 15.625 25.7812 12.8906C25.7795 10.1563 28.125 8.20312 30.4687 8.20312ZM17.5781 8.20312C19.9219 8.20312 22.2656 10.1563 22.2656 12.8906C22.2656 15.6233 20.3125 17.5781 17.5781 17.5781C14.8437 17.5781 12.8906 15.625 12.8906 12.8906C12.8906 10.1563 15.2344 8.20312 17.5781 8.20312ZM111.328 103.514C111.328 107.814 107.811 111.326 103.516 111.326H21.4844C17.1875 111.326 13.6736 107.811 13.6736 103.514V33.2031C13.6736 28.9063 17.1892 25.3924 21.4844 25.3924H54.6875C62.1094 25.3924 62.5 25.3924 62.5 21.4861C62.5 16.408 66.0156 13.6754 70.3108 13.6754H103.516C107.814 13.6754 111.326 17.191 111.326 21.4861L111.328 103.514Z" fill="#9C0F48"/>
</svg>
